<?xml version="1.0" encoding="utf-8"?>
<!-- Generator: Adobe Illustrator 19.2.1, SVG Export Plug-In . SVG Version: 6.00 Build 0)  -->
<svg version="1.1" id="Layer_1" xmlns="http://www.w3.org/2000/svg" xmlns:xlink="http://www.w3.org/1999/xlink" x="0px" y="0px"
	 viewBox="0 0 611 418" style="enable-background:new 0 0 611 418;" xml:space="preserve">
<title>logo arcom</title>
<path d="M592,153.3h-26.4c-10.4,18.7-18.1,38.6-29,56.8l-2.3-0.4l-25.2-56.4h-25.9v114h11.7c0.3-1.9,0.5-3.8,0.6-5.8
	c0-18.1-0.2-36.1-0.2-54.2c0-2.9,0.8-5.8,1.2-8.7h2.1l32.5,69.9l29.5-69.3l3.3,0.6c0.5,22.5-0.2,45,0.3,67.7H592V153.3z"/>
<path d="M165.8,164.6c5.5,0,9.5-0.5,13.4,0.1c11.9,1.8,21.7,11.3,22.3,21.3c0.6,9.8-6.1,17.6-18.4,21.6c-3.5,1.1-7,2.1-11.4,3.4
	l28.2,56H235l-29-49.4c3.8-1.9,6.6-3.3,9.4-4.7c19.7-9.5,23.6-32.9,8.1-48.1c-8.6-8.4-19.4-11.5-30.9-11.9
	c-17-0.5-34.1-0.2-51.2-0.1c-2,0.1-4,0.4-6,0.8v113.5h30.4L165.8,164.6L165.8,164.6z"/>
<path d="M350.2,239.3l-9.5-6.9c-3,3.8-5.4,7.4-8.3,10.4c-10,10.3-22.2,14.9-36.3,11.3c-13.1-3.4-20-13-23.6-25.8
	c-3.8-13.3-2.7-26.4,0.9-39.3c6.3-22.3,25.8-31.9,44.6-21.6c7.2,4,12.9,10.6,20,16.6l10.2-8.5c-14.8-22.3-45.2-30.7-71.8-20.6
	c-29.1,11.1-43.2,35.1-38.7,66c4.1,28.4,24.9,46.6,56.3,48.9C322.7,271.8,347.5,255.9,350.2,239.3z"/>
<path d="M130.8,267L87,153.2H57.1L15,266.4h17.9l30.5-89h2.9l31.2,88.9c2.9,0.3,5.1,0.6,7.4,0.6C113,267,121.2,267,130.8,267z"/>
<path d="M471.9,209.2c0.3-35.7-23.7-58-56.5-58.6c-41.3-0.7-61.3,28.4-62.2,60.3c-1,35.8,29.4,58.7,59.4,58.7
	C448.8,269.7,473.5,239.8,471.9,209.2z M442.3,211c-1.7,9.3-2.5,18.1-4.9,26.4c-4,13.9-14.9,21.6-27.2,19.2
	c-12-2.3-17.4-12-20.9-22.5c-5.2-16-3.8-32.1,0.5-48.1c0.4-1.2,0.8-2.4,1.3-3.5c4.7-11.8,13.3-18.8,23-18.7
	c9.9,0.1,19.2,7.4,22.9,19.8C439.6,192.5,440.6,202,442.3,211z"/>
<rect x="234.2" y="14.6" width="360.8" height="16.9"/>
<rect x="234.2" y="55" width="359.7" height="22.5"/>
<rect x="234.2" y="98.9" width="359.7" height="31.5"/>
<rect x="234.2" y="386.6" width="360.8" height="16.9"/>
<rect x="235.4" y="340.5" width="359.6" height="22.5"/>
<rect x="235.4" y="287.7" width="359.6" height="31.5"/>
</svg>
