<svg id="Layer_1" data-name="Layer 1" xmlns="http://www.w3.org/2000/svg" viewBox="0 0 402.67 172.26"><defs><style>.cls-1,.cls-2{fill:#fff;}.cls-1{fill-rule:evenodd;}.cls-2{font-size:27.89px;font-family:Helvetica;font-weight:700;}.cls-3{letter-spacing:-2px;}</style></defs><title>logotipo-playboy-horz-branco</title><path class="cls-1" d="M2.46,3.65C35.73,20.53,54.1,47.4,72.53,73.89,72.53,43.62,84.45,17.8,108,3c0.31,28.21.31,57.48-22.59,79.86C99,97.66,98,116.93,90.28,138.64c-8.74,5.83-18.11,9.27-28.11,12.39v-8.95l-19,8.95c-2.87-7.23-1.25-10.67,0-15.16C-7.53,118.65,19.27,80.44,58.94,77.33,31.2,65.29,1.52,42.23,2.46,3.65M32.18,163.74l-1.61-15.83,13.85,6.22L56,149l1,20.32-12.91-9.66Zm30.31-7.55,24.57-6.55v3.44l-24.88,6.22ZM40.56,90.1A6.38,6.38,0,0,1,47,96.61c0,3.82-2.6,6.88-6.14,6.88s-6.14-3.06-6.46-6.51c0-3.82,2.91-6.88,6.14-6.88"/><text class="cls-2" transform="translate(146.17 137.05)">PRESE<tspan x="94.55" y="0">R</tspan><tspan class="cls-3" x="114.22" y="0">VA</tspan><tspan x="148.89" y="0">TIVOS</tspan></text><path class="cls-1" d="M262.3,67.71h0.93a5.11,5.11,0,0,1,.94.05,0.58,0.58,0,0,1,.41.58,0.33,0.33,0,0,1-.06.23,0.36,0.36,0,0,1-.06.24v0.12c0,0.05-.06.05-0.06,0.11a0.36,0.36,0,0,0-.06.23,0.19,0.19,0,0,0-.06.12l-3.22,5.26h-0.35L257.8,70.8a4.13,4.13,0,0,1-.7-1.52,1.94,1.94,0,0,1-.23-0.93,0.46,0.46,0,0,1,.35-0.52,1.51,1.51,0,0,1,.76-0.11h0.94v-8.3h-20v8.3h0.53a3.48,3.48,0,0,1,2.28.58A5.35,5.35,0,0,1,243,69.93c0.05,0.12.05,0.18,0.12,0.3s0.12,0.17.18,0.23l3.91,6.19,5.67,8.65,0.05,4.91v0.41a2.08,2.08,0,0,1-.46,1.64,2.11,2.11,0,0,1-1,.29h-2.69v8.24h20.68V92.55h-2.69a1.71,1.71,0,0,1-.87-0.29,1.82,1.82,0,0,1-.35-1.46V85.12l6.77-12.56c0.29-.58.41-1.23,0.65-1.7a9.43,9.43,0,0,1,.52-1.28,3.7,3.7,0,0,1,1.06-1.46,2.86,2.86,0,0,1,1.75-.41h1.58v-8.3H262.3v8.3Z"/><path class="cls-1" d="M308.92,79.39h-0.7V78.88h0.29a8.67,8.67,0,0,0,5.9-2.4,8.22,8.22,0,0,0,2.69-6.6c0-4.27-1.71-8.17-4.45-9.48s-5.78-.91-9.23-0.92c-0.82-.07-1.58-0.07-2.39-0.07H280.75v8.3h1.81A2.53,2.53,0,0,1,284,68c0.41,0.17.58,0.88,0.58,2v20.1c0,1.17-.17,1.87-0.58,2.1a3.1,3.1,0,0,1-1.41.29,0.22,0.22,0,0,1-.12-0.06l-1.69.06v8.24h16s10.67,0.09,14.83-.32c4.45-.43,6.85-5.28,6.85-10.9a11.66,11.66,0,0,0-2.34-7.07c-1.52-2-3.92-3.1-7.13-3.1m-11.75-11h1.52a10.29,10.29,0,0,1,3.56.53c1,0.41,1.52,1.4,1.52,3a4.81,4.81,0,0,1-.81,2.63,3.63,3.63,0,0,1-3.1,1.11h-2.69V68.41Zm6.14,22.27a3.32,3.32,0,0,1-1.75,1,5.22,5.22,0,0,1-.93.12h-3.45V84h3.22a3.75,3.75,0,0,1,2.75,1.05,4.23,4.23,0,0,1,1,3,3.31,3.31,0,0,1-.82,2.57"/><path class="cls-1" d="M358.76,72.45a26.09,26.09,0,0,0-1.28-3.34A17.37,17.37,0,0,0,355.55,66a14.84,14.84,0,0,0-3-3.28,18.86,18.86,0,0,0-3.27-2.22,16.8,16.8,0,0,0-5.09-1.7,24.49,24.49,0,0,0-4.15-.41,23.93,23.93,0,0,0-4.15.41,19.67,19.67,0,0,0-5.2,1.76,32.63,32.63,0,0,0-3.22,2.22,17.64,17.64,0,0,0-3,3.22,14.09,14.09,0,0,0-1.87,3.15,25.71,25.71,0,0,0-1.35,3.34,19.35,19.35,0,0,0-.82,3.91,29.4,29.4,0,0,0-.23,3.74c0,1,.06,2.45.23,4.15a27.54,27.54,0,0,0,1.29,5.37,21.82,21.82,0,0,0,1.05,2.46,13.14,13.14,0,0,0,1.46,2.45,15.82,15.82,0,0,0,6.49,5.26,23.22,23.22,0,0,0,8.12,1.93h2.34a23.24,23.24,0,0,0,8.12-1.93,15.85,15.85,0,0,0,6.49-5.26,13,13,0,0,0,1.45-2.45,22.36,22.36,0,0,0,1.05-2.46,23.53,23.53,0,0,0,1.28-5.37c0.18-1.69.29-3.1,0.29-4.15s-0.12-2.4-.23-3.74a24.23,24.23,0,0,0-.88-3.91m-14,9.58a25.2,25.2,0,0,1-.88,7.18,4,4,0,0,1-7.71,0,25.31,25.31,0,0,1-.82-7.18v-3.8c0-4.09.35-6.72,1.05-8a4,4,0,0,1,2.4-2.16,2.6,2.6,0,0,1,.64-0.05h1.23a2.1,2.1,0,0,1,.58.05,4,4,0,0,1,2.4,2.16c0.75,1.23,1.11,3.86,1.11,8V82Z"/><path class="cls-1" d="M383.09,59.42v8.3H384a4.66,4.66,0,0,1,.94.06,0.51,0.51,0,0,1,.41.58v0.23a0.35,0.35,0,0,0-.06.24c0,0.06-.05.06-0.05,0.12a0.12,0.12,0,0,1-.06.11c0,0.06-.06.17-0.06,0.23a0.2,0.2,0,0,1-.06.12l-3.15,5.09h-0.35l-3-3.69a4.1,4.1,0,0,1-.7-1.52,2,2,0,0,1-.23-0.93,0.47,0.47,0,0,1,.35-0.52,1.64,1.64,0,0,1,.76-0.11h1v-8.3H359.54v8.3h0.58a3.47,3.47,0,0,1,2.28.58,5.33,5.33,0,0,1,1.23,1.64,0.69,0.69,0,0,1,.12.29c0.05,0.06.12,0.18,0.17,0.23l9.71,14.72v5.44a2.08,2.08,0,0,1-.47,1.64,1.94,1.94,0,0,1-1,.29h-2.63v8.24h20.63V92.55h-2.63a1.42,1.42,0,0,1-.87-0.29c-0.29-.12-0.41-0.64-0.41-1.46v-6L393,72.56a17.41,17.41,0,0,0,.64-1.7,8.7,8.7,0,0,1,.53-1.28,3.64,3.64,0,0,1,1.05-1.46,3,3,0,0,1,1.75-.41h1.58v-8.3H383.09Z"/><path class="cls-1" d="M242,91.9a6,6,0,0,1-1.11-2.22c-0.06-.11-0.06-0.23-0.12-0.35s-0.06-.24-0.06-0.36l-8.41-29.57h-15.9l-3.27,11-5.49,17.47a4.32,4.32,0,0,1-.23.58c-0.06.17-.12,0.41-0.18,0.58a8.17,8.17,0,0,1-1,1.82c-0.12.17-.24,0.35-0.35,0.52a3.06,3.06,0,0,1-2.45,1.11h-0.88v8.24h15.31V92.55h-0.58a4.38,4.38,0,0,1-1.17-.12,0.65,0.65,0,0,1-.46-0.23,0.64,0.64,0,0,1-.18-0.47,2.73,2.73,0,0,1,.12-0.7l0.23-.76h12.57l0.23,1.34c0,0.06,0,.11.06,0.11v0.12a0.49,0.49,0,0,1-.41.58,4.17,4.17,0,0,1-.93.12h-1.69v8.24h19.23V92.55H244a2.89,2.89,0,0,1-2-.64M222.21,81h-3.5l3.45-10.87h0.46l3,10.87h-3.45Z"/><path class="cls-1" d="M160,62.22a32,32,0,0,0-12-2.75c-0.59-.05-1.17-0.05-1.75-0.05h-17.3v8.3h1.69a2.34,2.34,0,0,1,1.69.41,2.81,2.81,0,0,1,.47,1.92v20.1a2.86,2.86,0,0,1-.47,1.93,2.34,2.34,0,0,1-1.69.46l-1.69-.06v8.3h21V92.55h-2.34a2.06,2.06,0,0,1-1.75-.58,2.85,2.85,0,0,1-.41-1.81V86.23h4.44c4.68,0,8.13-.82,10.35-2.51a12.64,12.64,0,0,0,4.38-5.49,14.59,14.59,0,0,0,.64-2.57,16.2,16.2,0,0,0,.18-2.28c0-5.78-1.81-9.47-5.44-11.16M150.45,75.6a4.49,4.49,0,0,1-1.87,1.35c-0.41.05-.87,0.17-1.28,0.23s-0.7.06-1,.06h-0.88V68.36h1.23c1.69,0,2.92.41,3.62,1.28a4.42,4.42,0,0,1,1.05,3,4.34,4.34,0,0,1-.87,3"/><path class="cls-1" d="M194.11,86.7c-0.06.41-.12,0.7-0.18,1-0.35,1.57-.76,2.51-1.28,2.87a5.6,5.6,0,0,1-3,.52h-6V69.93a2.64,2.64,0,0,1,.41-1.87,2.12,2.12,0,0,1,1.46-.35h2.16v-8.3H167.17v8.3h1.75a2,2,0,0,1,1.87.64A5.48,5.48,0,0,1,171,70v20.1a4.69,4.69,0,0,1-.29,1.76c-0.18.4-.76,0.64-1.81,0.64l-1.75-.06v8.3h33l0.29-15.25h-6.13c-0.06.46-.12,0.82-0.18,1.17"/></svg>