<?xml version="1.0" encoding="utf-8"?>
<!-- Generator: Adobe Illustrator 19.2.1, SVG Export Plug-In . SVG Version: 6.00 Build 0)  -->
<svg version="1.1" id="Layer_1" xmlns="http://www.w3.org/2000/svg" xmlns:xlink="http://www.w3.org/1999/xlink" x="0px" y="0px"
	 viewBox="0 0 200.7 224.4" style="enable-background:new 0 0 200.7 224.4;" xml:space="preserve">
<style type="text/css">
	.st0{fill-rule:evenodd;clip-rule:evenodd;fill:#FFFFFF;}
	.st1{fill:#FFFFFF;}
	.st2{font-family:'Helvetica-Bold';}
	.st3{font-size:12.4502px;}
</style>
<g>
	<path class="st0" d="M47.8,7.6C81,24.5,99.4,51.4,117.8,77.9c0-30.3,11.9-56.1,35.5-70.9c0.3,28.2,0.3,57.5-22.6,79.9
		c13.5,14.8,12.6,34.1,4.8,55.8c-8.7,5.8-18.1,9.3-28.1,12.4v-8.9l-19,8.9c-2.9-7.2-1.3-10.7,0-15.2c-50.7-17.2-23.9-55.4,15.8-58.5
		C76.5,69.3,46.8,46.2,47.8,7.6 M77.5,167.7l-1.6-15.8l13.9,6.2l11.6-5.2l1,20.3l-12.9-9.7L77.5,167.7z M107.8,160.2l24.6-6.6v3.4
		l-24.9,6.2L107.8,160.2z M85.9,94.1c3.5,0,6.5,2.7,6.5,6.5c0,3.8-2.6,6.9-6.1,6.9c-3.5,0-6.1-3.1-6.5-6.5
		C79.7,97.1,82.6,94.1,85.9,94.1"/>
</g>
<text transform="matrix(1 0 0 1 52.0848 211.4433)"><tspan x="0" y="0" class="st1 st2 st3">PRESE</tspan><tspan x="42.2" y="0" class="st1 st2 st3">R</tspan><tspan x="51" y="0" class="st1 st2 st3">VA</tspan><tspan x="66.5" y="0" class="st1 st2 st3">TIVOS</tspan></text>
<g>
	<path class="st0" d="M103.9,180.5h0.4c0.2,0,0.3,0,0.4,0c0.1,0,0.2,0.1,0.2,0.3c0,0,0,0.1,0,0.1c0,0,0,0.1,0,0.1v0.1c0,0,0,0,0,0.1
		c0,0,0,0.1,0,0.1c0,0,0,0.1,0,0.1l-1.4,2.3h-0.2l-1.3-1.7c-0.2-0.3-0.3-0.5-0.3-0.7c-0.1-0.2-0.1-0.3-0.1-0.4c0-0.1,0-0.2,0.2-0.2
		c0.1-0.1,0.2-0.1,0.3-0.1h0.4v-3.7h-5.2h-3.7v3.7h0.2c0.5,0,0.8,0.1,1,0.3c0.2,0.2,0.4,0.4,0.6,0.7c0,0.1,0,0.1,0.1,0.1
		c0,0,0.1,0.1,0.1,0.1l1.7,2.8l2.5,3.9l0,2.2v0.2c0,0.4-0.1,0.6-0.2,0.7c-0.2,0.1-0.3,0.1-0.4,0.1h-1.2v3.7h9.2v-3.7h-1.2
		c-0.1,0-0.3-0.1-0.4-0.1c-0.1-0.1-0.2-0.3-0.2-0.7v-2.5l3-5.6c0.1-0.3,0.2-0.5,0.3-0.8c0.1-0.2,0.2-0.4,0.2-0.6
		c0.1-0.3,0.3-0.5,0.5-0.7c0.2-0.1,0.4-0.2,0.8-0.2h0.7v-3.7h-6.9V180.5z"/>
	<path class="st0" d="M124.7,185.7h-0.3v-0.2h0.1c1,0,1.9-0.4,2.6-1.1c0.8-0.7,1.2-1.7,1.2-2.9c0-1.9-0.8-3.6-2-4.2
		c-1.3-0.6-2.6-0.4-4.1-0.4c-0.4,0-0.7,0-1.1,0h-9.1v3.7h0.8c0.3,0,0.5,0,0.6,0.1c0.2,0.1,0.3,0.4,0.3,0.9v9c0,0.5-0.1,0.8-0.3,0.9
		c-0.2,0.1-0.4,0.1-0.6,0.1c0,0-0.1,0-0.1,0l-0.8,0v3.7h7.1c0,0,4.8,0,6.6-0.1c2-0.2,3.1-2.4,3.1-4.9c0-1.2-0.4-2.2-1-3.2
		C127.2,186.2,126.2,185.7,124.7,185.7 M119.5,180.8h0.7c0.6,0,1.2,0.1,1.6,0.2c0.4,0.2,0.7,0.6,0.7,1.4c0,0.4-0.1,0.8-0.4,1.2
		c-0.3,0.3-0.7,0.5-1.4,0.5h-1.2V180.8z M122.2,190.7c-0.2,0.2-0.5,0.4-0.8,0.4c-0.2,0-0.3,0.1-0.4,0.1h-0.4h-1.2v-3.5h1.4
		c0.5,0,0.9,0.2,1.2,0.5c0.3,0.3,0.4,0.8,0.4,1.4C122.6,190.1,122.5,190.5,122.2,190.7"/>
	<path class="st0" d="M147,182.6c-0.2-0.5-0.3-1-0.6-1.5c-0.2-0.5-0.5-1-0.9-1.4c-0.4-0.6-0.9-1.1-1.4-1.5c-0.5-0.4-1-0.7-1.5-1
		c-0.8-0.4-1.5-0.7-2.3-0.8c-0.8-0.1-1.4-0.2-1.9-0.2s-1.1,0.1-1.9,0.2c-0.8,0.1-1.5,0.4-2.3,0.8c-0.5,0.3-0.9,0.6-1.4,1
		c-0.5,0.4-0.9,0.9-1.3,1.4c-0.3,0.4-0.6,0.9-0.8,1.4c-0.2,0.5-0.4,1-0.6,1.5c-0.2,0.6-0.3,1.2-0.4,1.7c-0.1,0.6-0.1,1.1-0.1,1.7
		c0,0.5,0,1.1,0.1,1.9c0.1,0.8,0.3,1.6,0.6,2.4c0.1,0.4,0.3,0.7,0.5,1.1c0.2,0.4,0.4,0.8,0.7,1.1c0.8,1,1.7,1.8,2.9,2.3
		c1.2,0.5,2.4,0.8,3.6,0.9h1c1.3-0.1,2.5-0.4,3.6-0.9c1.2-0.5,2.1-1.3,2.9-2.3c0.3-0.3,0.5-0.7,0.6-1.1c0.2-0.4,0.3-0.7,0.5-1.1
		c0.3-0.8,0.5-1.6,0.6-2.4c0.1-0.8,0.1-1.4,0.1-1.9c0-0.5-0.1-1.1-0.1-1.7C147.3,183.8,147.2,183.2,147,182.6 M140.7,186.9
		c0,1.3-0.1,2.3-0.4,3.2c-0.3,0.9-0.8,1.3-1.7,1.3s-1.5-0.4-1.7-1.3c-0.3-0.9-0.4-1.9-0.4-3.2v-1.7c0-1.8,0.2-3,0.5-3.5
		c0.3-0.5,0.7-0.9,1.1-1c0.1,0,0.2,0,0.3,0h0.3h0.3c0.1,0,0.2,0,0.3,0c0.4,0.1,0.8,0.4,1.1,1c0.3,0.6,0.5,1.7,0.5,3.5V186.9z"/>
	<path class="st0" d="M157.8,176.8v3.7h0.4c0.2,0,0.3,0,0.4,0c0.1,0,0.2,0.1,0.2,0.3v0.1c0,0,0,0.1,0,0.1c0,0,0,0,0,0.1
		c0,0,0,0,0,0.1c0,0,0,0.1,0,0.1c0,0,0,0.1,0,0.1l-1.4,2.3h-0.2l-1.3-1.6c-0.2-0.3-0.3-0.5-0.3-0.7c-0.1-0.2-0.1-0.3-0.1-0.4
		c0-0.1,0.1-0.2,0.2-0.2c0.1-0.1,0.2-0.1,0.3-0.1h0.4v-3.7h-9v3.7h0.3c0.5,0,0.8,0.1,1,0.3c0.2,0.2,0.4,0.4,0.5,0.7
		c0,0.1,0.1,0.1,0.1,0.1c0,0,0.1,0.1,0.1,0.1l4.3,6.6v2.4c0,0.4-0.1,0.6-0.2,0.7c-0.1,0.1-0.3,0.1-0.4,0.1h-1.2v3.7h9.2v-3.7h-1.2
		c-0.2,0-0.3-0.1-0.4-0.1c-0.1-0.1-0.2-0.3-0.2-0.7v-2.7l3-5.5c0.1-0.3,0.2-0.5,0.3-0.8c0.1-0.2,0.2-0.4,0.2-0.6
		c0.1-0.3,0.3-0.5,0.5-0.7c0.2-0.1,0.4-0.2,0.8-0.2h0.7v-3.7H157.8z"/>
	<path class="st0" d="M94.8,191.3c-0.2-0.2-0.3-0.5-0.5-1c0-0.1,0-0.1-0.1-0.2c0-0.1,0-0.1,0-0.2l-3.8-13.2H86h-2.6l-1.5,4.9
		l-2.5,7.8c0,0.1-0.1,0.2-0.1,0.3c0,0.1-0.1,0.2-0.1,0.3c-0.1,0.3-0.3,0.5-0.4,0.8c-0.1,0.1-0.1,0.2-0.2,0.2
		c-0.3,0.3-0.6,0.5-1.1,0.5h-0.4v3.7h1.6h5.2v-3.7h-0.3c-0.3,0-0.4,0-0.5-0.1c-0.1,0-0.2-0.1-0.2-0.1c-0.1-0.1-0.1-0.1-0.1-0.2
		c0-0.1,0-0.2,0.1-0.3l0.1-0.3H86h2.7l0.1,0.6c0,0,0,0.1,0,0.1v0.1c0,0.2-0.1,0.2-0.2,0.3c-0.1,0-0.3,0.1-0.4,0.1h-0.8v3.7h8.6v-3.7
		h-0.4C95.3,191.6,95.1,191.5,94.8,191.3 M86,186.4h-1.6l1.5-4.9h0h0.2l1.4,4.9H86z"/>
	<path class="st0" d="M58.2,178c-1.6-0.7-3.4-1.1-5.3-1.2c-0.3,0-0.5,0-0.8,0h-7.7v3.7h0.8c0.4,0,0.6,0.1,0.8,0.2
		c0.1,0.1,0.2,0.4,0.2,0.9v9c0,0.4-0.1,0.7-0.2,0.9c-0.1,0.1-0.4,0.2-0.8,0.2l-0.8,0v3.7h9.4v-3.7h-1c-0.4,0-0.7-0.1-0.8-0.3
		c-0.1-0.2-0.2-0.4-0.2-0.8v-1.7h2c2.1,0,3.6-0.4,4.6-1.1c1-0.7,1.6-1.6,2-2.5c0.1-0.4,0.2-0.8,0.3-1.1c0.1-0.4,0.1-0.7,0.1-1
		C60.7,180.4,59.9,178.8,58.2,178 M54,184c-0.3,0.3-0.5,0.5-0.8,0.6c-0.2,0-0.4,0.1-0.6,0.1c-0.2,0-0.3,0-0.4,0h-0.4v-4h0.5
		c0.8,0,1.3,0.2,1.6,0.6c0.3,0.4,0.5,0.8,0.5,1.3C54.4,183.3,54.3,183.7,54,184"/>
	<path class="st0" d="M73.5,189c0,0.2-0.1,0.3-0.1,0.4c-0.2,0.7-0.3,1.1-0.6,1.3c-0.2,0.2-0.7,0.2-1.3,0.2h-2.7v-9.4
		c0-0.4,0.1-0.7,0.2-0.8c0.1-0.1,0.3-0.2,0.7-0.2h1v-3.7h-9.2v3.7h0.8c0.5,0,0.7,0.1,0.8,0.3c0.1,0.2,0.1,0.5,0.1,0.8v9
		c0,0.3,0,0.5-0.1,0.8c-0.1,0.2-0.3,0.3-0.8,0.3l-0.8,0v3.7h14.7l0.1-6.8h-2.7C73.5,188.7,73.5,188.8,73.5,189"/>
</g>
</svg>
