<svg id="Layer_1" data-name="Layer 1" xmlns="http://www.w3.org/2000/svg" viewBox="0 0 200.74 224.41"><defs><style>.cls-1{fill:#fff;fill-rule:evenodd;}</style></defs><title>logotipo-playboy-branco</title><path class="cls-1" d="M30,7.83c42.92,21.78,66.63,56.45,90.4,90.63,0-39.05,15.38-72.37,45.81-91.5,0.4,36.4.4,74.16-29.15,103,17.46,19.12,16.19,44,6.25,72C132,189.53,119.89,194,107,198V186.44L82.42,198c-3.71-9.33-1.62-13.76,0-19.56-65.36-22.21-30.78-71.51,20.41-75.52C67,87.36,28.74,57.61,30,7.83M68.3,214.39L66.22,194l17.87,8,15-6.66,1.27,26.22L83.69,209.08Zm39.1-9.75,31.7-8.46v4.44l-32.1,8ZM79.12,119.38a8.23,8.23,0,0,1,8.33,8.39c0,4.93-3.35,8.88-7.92,8.88s-7.92-3.95-8.33-8.4c0-4.93,3.76-8.88,7.92-8.88"/></svg>